<svg version="1.1" viewBox="0.0 0.0 960.0 720.0" fill="none" stroke="none" stroke-linecap="square" stroke-miterlimit="10" xmlns:xlink="http://www.w3.org/1999/xlink" xmlns="http://www.w3.org/2000/svg"><clipPath id="p.0"><path d="m0 0l960.0 0l0 720.0l-960.0 0l0 -720.0z" clip-rule="nonzero"/></clipPath><g clip-path="url(#p.0)"><path fill="#000000" fill-opacity="0.0" d="m0 0l960.0 0l0 720.0l-960.0 0z" fill-rule="evenodd"/><path fill="#000000" fill-opacity="0.0" d="m0 558.6221l960.0 0" fill-rule="evenodd"/><path stroke="#000000" stroke-width="4.0" stroke-linejoin="round" stroke-linecap="butt" d="m0 558.6221l960.0 0" fill-rule="evenodd"/><path fill="#000000" fill-opacity="0.0" d="m0 644.8819l960.0 0" fill-rule="evenodd"/><path stroke="#000000" stroke-width="4.0" stroke-linejoin="round" stroke-linecap="butt" d="m0 644.8819l960.0 0" fill-rule="evenodd"/><path fill="#000000" fill-opacity="0.0" d="m0 598.61945l960.0 0" fill-rule="evenodd"/><path stroke="#ffd241" stroke-width="4.0" stroke-linejoin="round" stroke-linecap="butt" stroke-dasharray="16.0,12.0" d="m0 598.61945l960.0 0" fill-rule="evenodd"/><path fill="#000000" fill-opacity="0.0" d="m0 471.5853l960.0 0" fill-rule="evenodd"/><path stroke="#000000" stroke-width="4.0" stroke-linejoin="round" stroke-linecap="butt" d="m0 471.5853l960.0 0" fill-rule="evenodd"/><path fill="#000000" fill-opacity="0.0" d="m0 557.84515l960.0 0" fill-rule="evenodd"/><path stroke="#000000" stroke-width="4.0" stroke-linejoin="round" stroke-linecap="butt" d="m0 557.84515l960.0 0" fill-rule="evenodd"/><path fill="#000000" fill-opacity="0.0" d="m0 511.58267l960.0 0" fill-rule="evenodd"/><path stroke="#ffd241" stroke-width="4.0" stroke-linejoin="round" stroke-linecap="butt" stroke-dasharray="16.0,12.0" d="m0 511.58267l960.0 0" fill-rule="evenodd"/><path fill="#000000" fill-opacity="0.0" d="m0 212.02887l960.0 0" fill-rule="evenodd"/><path stroke="#000000" stroke-width="4.0" stroke-linejoin="round" stroke-linecap="butt" d="m0 212.02887l960.0 0" fill-rule="evenodd"/><path fill="#000000" fill-opacity="0.0" d="m0 298.28873l960.0 0" fill-rule="evenodd"/><path stroke="#000000" stroke-width="4.0" stroke-linejoin="round" stroke-linecap="butt" d="m0 298.28873l960.0 0" fill-rule="evenodd"/><path fill="#000000" fill-opacity="0.0" d="m0 252.02625l960.0 0" fill-rule="evenodd"/><path stroke="#ffd241" stroke-width="4.0" stroke-linejoin="round" stroke-linecap="butt" stroke-dasharray="16.0,12.0" d="m0 252.02625l960.0 0" fill-rule="evenodd"/><path fill="#000000" fill-opacity="0.0" d="m0 114.24147l960.0 0" fill-rule="evenodd"/><path stroke="#000000" stroke-width="4.0" stroke-linejoin="round" stroke-linecap="butt" d="m0 114.24147l960.0 0" fill-rule="evenodd"/><path fill="#000000" fill-opacity="0.0" d="m0 168.47507l960.0 0" fill-rule="evenodd"/><path stroke="#ffd241" stroke-width="4.0" stroke-linejoin="round" stroke-linecap="butt" stroke-dasharray="16.0,12.0" d="m0 168.47507l960.0 0" fill-rule="evenodd"/></g></svg>